# xmcd CD database file
# Copyright (C) 1996 Ti Kan
#
# Track frame offsets:
#  150
#  21805
#  38477
#  56677
#  82225
#  108310
#  140240
#  162935
#  184257
#  207392
#
# Disc length: 2967 seconds
#
# Revision: 1
# Processed by: cddbd v1.4b41PL1 Copyright (c) Steve Scherf et al.
# Submitted via: CDWizzard Release:4.13
#
DISCID=8d0b950a
DTITLE=Pueblo Perdido - Karumanta Jamuyku
DYEAR=1900
DGENRE=
TTITLE0=Juan De Las Montanas
TTITLE1=AMorosa Palomita
TTITLE2=Jatun Runa
TTITLE3=Condor Pasa
TTITLE4=Karumanta
TTITLE5=Fiesta De San Benito
TTITLE6=Hermano Chay
TTITLE7=Papel del Plata
TTITLE8=Humahuaqueno
TTITLE9=Antion Mocho
EXTD=
EXTT0=
EXTT1=
EXTT2=
EXTT3=
EXTT4=
EXTT5=
EXTT6=
EXTT7=
EXTT8=
EXTT9=
PLAYORDER=
